<mxfile host="app.diagrams.net" modified="2020-04-20T11:25:50.381Z" agent="5.0 (Macintosh; Intel Mac OS X 10_14_6) AppleWebKit/537.36 (KHTML, like Gecko) Chrome/80.0.3987.163 Safari/537.36" etag="XpX3wf0WHWgsZWsOqC2e" version="12.9.14" type="github">
  <diagram id="cGebSh-giMJ_sSkDRZll" name="Page-1">
    <mxGraphModel dx="1426" dy="726" grid="1" gridSize="10" guides="1" tooltips="1" connect="1" arrows="1" fold="1" page="1" pageScale="1" pageWidth="827" pageHeight="1169" math="0" shadow="0">
      <root>
        <mxCell id="0" />
        <mxCell id="1" parent="0" />
        <mxCell id="4WnGMgaAHcAUWdQLiOON-1" value="" style="rounded=1;whiteSpace=wrap;html=1;" vertex="1" parent="1">
          <mxGeometry x="180" y="70" width="120" height="60" as="geometry" />
        </mxCell>
        <mxCell id="4WnGMgaAHcAUWdQLiOON-3" style="edgeStyle=orthogonalEdgeStyle;rounded=0;orthogonalLoop=1;jettySize=auto;html=1;entryX=0.5;entryY=1;entryDx=0;entryDy=0;" edge="1" parent="1" source="4WnGMgaAHcAUWdQLiOON-2" target="4WnGMgaAHcAUWdQLiOON-1">
          <mxGeometry relative="1" as="geometry" />
        </mxCell>
        <mxCell id="4WnGMgaAHcAUWdQLiOON-2" value="" style="rounded=0;whiteSpace=wrap;html=1;" vertex="1" parent="1">
          <mxGeometry x="180" y="230" width="120" height="60" as="geometry" />
        </mxCell>
      </root>
    </mxGraphModel>
  </diagram>
</mxfile>
